<svg xmlns="http://www.w3.org/2000/svg" version="1.1" xmlns:xlink="http://www.w3.org/1999/xlink" xmlns:svgjs="http://svgjs.com/svgjs" width="1600" height="800">
  <rect width="1600" height="800" fill="#343a40"></rect>
  <rect width="1600" height="800" fill="#ff318c" opacity="0"></rect>
  <g>
    <g class="tile" transform="matrix(-1.8369701987210297e-16,-1,1,-1.8369701987210297e-16,1.4210854715202004e-14,199.99999809265137)">
      <path xmlns="http://www.w3.org/2000/svg" d="M85.55555555555556 55.69855746290419A19.857 19.857 0 0 1 105.41255555555556 35.84155746290419V75.55555746290419A19.857 19.857 0 0 1 85.55555555555556 55.69855746290419Z " transform="matrix(1.8,0,0,1.8,0,0)" fill-opacity="1" fill="#8554f6" stroke-opacity="0" stroke-width="0" stroke="#8554f6" opacity="1" stroke-linejoin="round" stroke-linecap="round"></path>
      <path xmlns="http://www.w3.org/2000/svg" d="M105.55555555555556 5.555555555555555H55.55555555555556V55.55555555555556A50 50 0 0 1 105.55555555555556 5.555555555555555Z " transform="matrix(1.8,0,0,1.8,0,0)" fill-opacity="1" fill="#8554f6" stroke-opacity="0" stroke-width="0" stroke="#8554f6" opacity="1" stroke-linejoin="round" stroke-linecap="round"></path>
      <path xmlns="http://www.w3.org/2000/svg" d="M105.55555555555556 105.55555555555556A50 50 0 0 1 55.55555555555556 55.55555555555556V105.55555555555556Z " transform="matrix(1.8,0,0,1.8,0,0)" fill-opacity="1" fill="#8554f6" stroke-opacity="0" stroke-width="0" stroke="#8554f6" opacity="1" stroke-linejoin="round" stroke-linecap="round"></path>
    </g>
    <g class="tile" transform="matrix(1,-9.797174393178824e-16,9.797174393178824e-16,1,-3.410605131648481e-13,1.1368683772161603e-13)">
      <path xmlns="http://www.w3.org/2000/svg" d="M78.15555555555555 189.26666666666665C72.35555555555555 195.06666666666666 64.35555555555555 198.66666666666669 55.55555555555556 198.66666666666669C37.855555555555554 198.66666666666669 23.555555555555557 184.36666666666667 23.555555555555557 166.66666666666669C23.555555555555557 157.86666666666667 27.15555555555556 149.86666666666667 32.955555555555556 144.06666666666666L5.555555555555555 116.66666666666667V216.66666666666669H105.55555555555556L78.15555555555555 189.26666666666665Z " transform="matrix(1.8,0,0,1.8,0,0)" fill-opacity="1" fill="#a34af2" stroke-opacity="0" stroke-width="0" stroke="#a34af2" opacity="1" stroke-linejoin="round" stroke-linecap="round"></path>
    </g>
    <g class="tile" transform="matrix(-1,3.6739403974420594e-16,-3.6739403974420594e-16,-1,199.99999809265162,999.9999694824219)">
      <circle xmlns="http://www.w3.org/2000/svg" cx="25.55555534362793" cy="247.7777777777778" r="20" transform="matrix(1.8,0,0,1.8,0,0)" fill-opacity="1" fill="#7d57f7" stroke-opacity="0" stroke-width="0" stroke="#7d57f7" opacity="1" stroke-linejoin="round" stroke-linecap="round"></circle>
      <path xmlns="http://www.w3.org/2000/svg" d="M78.79055746290419 227.7777777777778L24.37255746290419 327.7777777777778H105.55555746290419V227.7777777777778Z " transform="matrix(1.8,0,0,1.8,0,0)" fill-opacity="1" fill="#7d57f7" stroke-opacity="0" stroke-width="0" stroke="#7d57f7" opacity="1" stroke-linejoin="round" stroke-linecap="round"></path>
    </g>
    <g class="tile" transform="matrix(-1,3.6739403974420594e-16,-3.6739403974420594e-16,-1,199.99999809265165,1400)">
      <circle xmlns="http://www.w3.org/2000/svg" cx="25.55555534362793" cy="358.8888888888889" r="20" transform="matrix(1.8,0,0,1.8,0,0)" fill-opacity="1" fill="#7d57f7" stroke-opacity="0" stroke-width="0" stroke="#7d57f7" opacity="1" stroke-linejoin="round" stroke-linecap="round"></circle>
      <path xmlns="http://www.w3.org/2000/svg" d="M78.79055746290419 338.8888888888889L24.37255746290419 438.8888888888889H105.55555746290419V338.8888888888889Z " transform="matrix(1.8,0,0,1.8,0,0)" fill-opacity="1" fill="#7d57f7" stroke-opacity="0" stroke-width="0" stroke="#7d57f7" opacity="1" stroke-linejoin="round" stroke-linecap="round"></path>
    </g>
    <g class="tile" transform="matrix(-1,3.6739403974420594e-16,-3.6739403974420594e-16,-1,599.9999847412109,199.9999980926513)">
      <path xmlns="http://www.w3.org/2000/svg" d="M216.66666666666669 45.55555555555556L176.66666666666669 5.555555555555555H216.66666666666669Z " transform="matrix(1.8,0,0,1.8,0,0)" fill-opacity="1" fill="#ab47f1" stroke-opacity="0" stroke-width="0" stroke="#ab47f1" opacity="1" stroke-linejoin="round" stroke-linecap="round"></path>
      <path xmlns="http://www.w3.org/2000/svg" d="M186.66666666666669 105.55555555555556H169.66666666666669A53.05963 53.05963 0 0 0 116.66666666666667 52.55555555555556V35.55555555555556A70.07988 70.07988 0 0 1 186.66666666666669 105.55555555555556Z " transform="matrix(1.8,0,0,1.8,0,0)" fill-opacity="1" fill="#ab47f1" stroke-opacity="0" stroke-width="0" stroke="#ab47f1" opacity="1" stroke-linejoin="round" stroke-linecap="round"></path>
    </g>
    <g class="tile" transform="matrix(-1,3.6739403974420594e-16,-3.6739403974420594e-16,-1,599.999984741211,599.9999847412107)">
      <circle xmlns="http://www.w3.org/2000/svg" cx="196.6666717529297" cy="166.66666666666669" r="20" transform="matrix(1.8,0,0,1.8,0,0)" fill-opacity="1" fill="#cb40b4" stroke-opacity="0" stroke-width="0" stroke="#cb40b4" opacity="1" stroke-linejoin="round" stroke-linecap="round"></circle>
      <path xmlns="http://www.w3.org/2000/svg" d="M116.66666666666667 116.66666666666667L166.66666666666669 166.66666666666669L116.66666666666667 216.66666666666669Z " transform="matrix(1.8,0,0,1.8,0,0)" fill-opacity="1" fill="#cb40b4" stroke-opacity="0" stroke-width="0" stroke="#cb40b4" opacity="1" stroke-linejoin="round" stroke-linecap="round"></path>
    </g>
    <g class="tile" transform="matrix(1,0,0,1,0,0)">
      <path xmlns="http://www.w3.org/2000/svg" d="M191.66666666666669 228.69068394814076L144.54066666666668 228.36868394814076L116.66666666666667 228.69068394814076V328.69068394814076H193.41966666666667L211.66666666666669 288.69068394814076L151.66666666666669 268.69068394814076Z " transform="matrix(1.8,0,0,1.7942226283242473,0,0.2557397075284399)" fill-opacity="1" fill="#7d57f7" stroke-opacity="0" stroke-width="0" stroke="#7d57f7" opacity="1" stroke-linejoin="round" stroke-linecap="round"></path>
    </g>
    <g class="tile" transform="matrix(3.0616169978683826e-16,1,-1,3.0616169978683826e-16,999.9999923706055,400.0000076293943)">
      <path xmlns="http://www.w3.org/2000/svg" d="M216.66666666666669 396.8888888888889L165.4646666666667 399.9108888888889L216.66666666666669 383.8888888888889V369.8888888888889L163.77266666666668 372.9798888888889L216.66666666666669 355.8888888888889V342.8888888888889L116.66666666666667 349.8888888888889V438.8888888888889L216.66666666666669 410.8888888888889Z " transform="matrix(1.8,0,0,1.8,0,0)" fill-opacity="1" fill="#dc3ba7" stroke-opacity="0" stroke-width="0" stroke="#dc3ba7" opacity="1" stroke-linejoin="round" stroke-linecap="round"></path>
    </g>
    <g class="tile" transform="matrix(1,-2.4492935982947064e-16,2.4492935982947064e-16,1,0,1.4210854715202004e-13)">
      <path xmlns="http://www.w3.org/2000/svg" d="M303.04677777777783 81.55555555555556L255.0467777777778 83.55555555555556L245.5087777777778 57.37255555555556L266.6407777777778 23.19755555555556L327.7777777777778 5.555555555555559H227.7777777777778V105.55555555555556H327.7777777777778V5.555555555555555Z " transform="matrix(1.8,0,0,1.8,0,0)" fill-opacity="1" fill="#9c4cf3" stroke-opacity="0" stroke-width="0" stroke="#9c4cf3" opacity="1" stroke-linejoin="round" stroke-linecap="round"></path>
    </g>
    <g class="tile" transform="matrix(-1,6.123233995736765e-16,-6.123233995736765e-16,-1,999.9999694824221,599.9999847412107)">
      <path xmlns="http://www.w3.org/2000/svg" d="M257.5277777777778 216.66666666666669A29.78357 29.78357 0 0 1 227.7777777777778 186.91666666666669V116.66666666666667H244.7777777777778V186.91666666666669A12.75 12.75 0 0 0 270.2777777777778 186.91666666666669V167.9684266666667A29.74949 29.74949 0 0 1 321.0639077777778 146.93228666666667L327.7777777777778 153.66666666666669V178.66666666666669L309.0424277777778 158.95377666666667A12.74883 12.74883 0 0 0 287.2777777777778 167.9684266666667V186.91666666666669A29.78357 29.78357 0 0 1 257.5277777777778 216.66666666666669Z " transform="matrix(1.8,0,0,1.8,0,0)" fill-opacity="1" fill="#ff318c" stroke-opacity="0" stroke-width="0" stroke="#ff318c" opacity="1" stroke-linejoin="round" stroke-linecap="round"></path>
    </g>
    <g class="tile" transform="matrix(5.51091059616309e-16,1,-1,5.51091059616309e-16,999.9999694824216,-3.410605131648481e-13)">
      <path xmlns="http://www.w3.org/2000/svg" d="M327.77778456758506 272.5347777777778L316.03578456758504 227.7777777777778H301.116784567585H284.37278456758503L250.35778456758504 238.0767777777778L255.43278456758503 253.5087777777778L227.78278456758503 259.3367777777778L227.77778456758503 286.07577777777783L247.89878456758504 327.7777777777778L298.166784567585 319.0147777777778L295.914784567585 299.6947777777778L317.22078456758504 303.9527777777778Z " transform="matrix(1.8,0,0,1.8,0,0)" fill-opacity="1" fill="#9c4cf3" stroke-opacity="0" stroke-width="0" stroke="#9c4cf3" opacity="1" stroke-linejoin="round" stroke-linecap="round"></path>
    </g>
    <g class="tile" transform="matrix(6.123233995736766e-17,1,-1,6.123233995736766e-17,1199.999984741211,200.000015258789)">
      <circle xmlns="http://www.w3.org/2000/svg" cx="247.77777099609375" cy="358.8888888888889" r="20" transform="matrix(1.8,0,0,1.8,0,0)" fill-opacity="1" fill="#ba45c2" stroke-opacity="0" stroke-width="0" stroke="#ba45c2" opacity="1" stroke-linejoin="round" stroke-linecap="round"></circle>
      <path xmlns="http://www.w3.org/2000/svg" d="M301.0127796851264 338.8888888888889L246.59477968512644 438.8888888888889H327.77777968512646V338.8888888888889Z " transform="matrix(1.8,0,0,1.8,0,0)" fill-opacity="1" fill="#ba45c2" stroke-opacity="0" stroke-width="0" stroke="#ba45c2" opacity="1" stroke-linejoin="round" stroke-linecap="round"></path>
    </g>
    <g class="tile" transform="matrix(-1,1.2246467991473532e-16,-1.2246467991473532e-16,-1,1400,199.99999999999991)">
      <circle xmlns="http://www.w3.org/2000/svg" cx="387.8888854980469" cy="44.55556657580251" r="10" transform="matrix(1.8,0,0,1.7999998626709088,0,0.00000305180567374092)" fill-opacity="1" fill="#a34af2" stroke-opacity="0" stroke-width="0" stroke="#a34af2" opacity="1" stroke-linejoin="round" stroke-linecap="round"></circle>
      <path xmlns="http://www.w3.org/2000/svg" d="M410.5207288888889 105.5555627611294H393.5207288888889V89.10439276112939A33.81149 33.81149 0 0 1 403.4875188888889 65.04091276112939L416.9006088888889 51.62783276112938A17.03 17.03 0 0 0 404.85861888888894 22.555562761129387H338.8888888888889V5.555562761129387H404.85861888888894A34.0302 34.0302 0 0 1 428.9220888888889 63.64833276112939L415.5090088888889 77.06240276112939A16.9165 16.9165 0 0 0 410.5207288888889 89.10440276112939Z " transform="matrix(1.8,0,0,1.7999998626709088,0,0.00000305180567374092)" fill-opacity="1" fill="#a34af2" stroke-opacity="0" stroke-width="0" stroke="#a34af2" opacity="1" stroke-linejoin="round" stroke-linecap="round"></path>
    </g>
    <g class="tile" transform="matrix(-1,3.6739403974420594e-16,-3.6739403974420594e-16,-1,1400.0000000000002,599.9999847412106)">
      <polygon xmlns="http://www.w3.org/2000/svg" points="375.8888854980469,153.66666666666669 358.8888854980469,216.66666666666669 378.58888549804686,216.66666666666669 391.3888854980469,169.16666666666669 438.8888854980469,156.36666666666667 438.8888854980469,136.66666666666669" transform="matrix(1.8,0,0,1.8,0,0)" fill-opacity="1" fill="#8754ea" stroke-opacity="0" stroke-width="0" stroke="#8754ea" opacity="1" stroke-linejoin="round" stroke-linecap="round"></polygon>
      <path xmlns="http://www.w3.org/2000/svg" d="M438.8888888888889 175.66666666666669L406.3888888888889 184.16666666666669L397.8888888888889 216.66666666666669H438.8888888888889V175.66666666666669Z " transform="matrix(1.8,0,0,1.8,0,0)" fill-opacity="1" fill="#8754ea" stroke-opacity="0" stroke-width="0" stroke="#8754ea" opacity="1" stroke-linejoin="round" stroke-linecap="round"></path>
      <path xmlns="http://www.w3.org/2000/svg" d="M438.8888888888889 116.66666666666667H365.0888888888889H338.8888888888889V142.86666666666667V216.66666666666669L359.6888888888889 137.46666666666667L438.8888888888889 116.66666666666667Z " transform="matrix(1.8,0,0,1.8,0,0)" fill-opacity="1" fill="#8754ea" stroke-opacity="0" stroke-width="0" stroke="#8754ea" opacity="1" stroke-linejoin="round" stroke-linecap="round"></path>
    </g>
    <g class="tile" transform="matrix(3.0616169978683826e-16,1,-1,3.0616169978683826e-16,1199.9999847412107,-200.0000152587894)">
      <circle xmlns="http://www.w3.org/2000/svg" cx="388.8888854980469" cy="277.7777777777778" r="50" transform="matrix(1.8,0,0,1.8,0,0)" fill-opacity="1" fill="#a34af2" stroke-opacity="0" stroke-width="0" stroke="#a34af2" opacity="1" stroke-linejoin="round" stroke-linecap="round"></circle>
    </g>
    <g class="tile" transform="matrix(-1,3.6739403974420594e-16,-3.6739403974420594e-16,-1,1400,1400)">
      <path xmlns="http://www.w3.org/2000/svg" d="M338.8888888888889 338.8888888888889L359.8888888888889 382.8888888888889L418.8888888888889 358.8888888888889V418.8888888888889L338.8888888888889 438.8888888888889H438.8888888888889V338.8888888888889Z " transform="matrix(1.8,0,0,1.8,0,0)" fill-opacity="1" fill="#8c52f5" stroke-opacity="0" stroke-width="0" stroke="#8c52f5" opacity="1" stroke-linejoin="round" stroke-linecap="round"></path>
    </g>
    <g class="tile" transform="matrix(3.0616169978683826e-16,1,-1,3.0616169978683826e-16,999.9999990463255,-800.0000009536743)">
      <path xmlns="http://www.w3.org/2000/svg" d="M500 105.55555555555556H550V55.55555555555556A50 50 0 0 1 500 105.55555555555556Z " transform="matrix(1.8,0,0,1.8,0,0)" fill-opacity="1" fill="#dc3ba7" stroke-opacity="0" stroke-width="0" stroke="#dc3ba7" opacity="1" stroke-linejoin="round" stroke-linecap="round"></path>
      <path xmlns="http://www.w3.org/2000/svg" d="M500 5.555555555555555A50 50 0 0 1 550 55.55555555555556V5.555555555555555Z " transform="matrix(1.8,0,0,1.8,0,0)" fill-opacity="1" fill="#dc3ba7" stroke-opacity="0" stroke-width="0" stroke="#dc3ba7" opacity="1" stroke-linejoin="round" stroke-linecap="round"></path>
      <path xmlns="http://www.w3.org/2000/svg" d="M450 5.555555555555555L500 55.55555555555556L450 105.55555555555556Z " transform="matrix(1.8,0,0,1.8,0,0)" fill-opacity="1" fill="#dc3ba7" stroke-opacity="0" stroke-width="0" stroke="#dc3ba7" opacity="1" stroke-linejoin="round" stroke-linecap="round"></path>
    </g>
    <g class="tile" transform="matrix(-1,6.123233995736766e-16,-6.123233995736766e-16,-1,1800,599.9999999999995)">
      <path xmlns="http://www.w3.org/2000/svg" d="M510 177.16555998907535A40 40 0 0 1 550 137.16555998907538V217.16555998907535A40 40 0 0 1 510 177.16555998907535Z " transform="matrix(1.8,0,0,1.7958649289279902,0,0)" fill-opacity="1" fill="#ba45c2" stroke-opacity="0" stroke-width="0" stroke="#ba45c2" opacity="1" stroke-linejoin="round" stroke-linecap="round"></path>
      <path xmlns="http://www.w3.org/2000/svg" d="M470 176.935301896424L450 196.935301896424V176.935301896424Z " transform="matrix(1.8,0,0,1.7958649289279902,0,0)" fill-opacity="1" fill="#ba45c2" stroke-opacity="0" stroke-width="0" stroke="#ba45c2" opacity="1" stroke-linejoin="round" stroke-linecap="round"></path>
      <path xmlns="http://www.w3.org/2000/svg" d="M470 136.935301896424L450 156.935301896424V136.935301896424Z " transform="matrix(1.8,0,0,1.7958649289279902,0,0)" fill-opacity="1" fill="#ba45c2" stroke-opacity="0" stroke-width="0" stroke="#ba45c2" opacity="1" stroke-linejoin="round" stroke-linecap="round"></path>
      <path xmlns="http://www.w3.org/2000/svg" d="M490 156.935301896424L470 176.935301896424V156.935301896424Z " transform="matrix(1.8,0,0,1.7958649289279902,0,0)" fill-opacity="1" fill="#ba45c2" stroke-opacity="0" stroke-width="0" stroke="#ba45c2" opacity="1" stroke-linejoin="round" stroke-linecap="round"></path>
      <path xmlns="http://www.w3.org/2000/svg" d="M510 136.935301896424L490 156.935301896424V136.935301896424Z " transform="matrix(1.8,0,0,1.7958649289279902,0,0)" fill-opacity="1" fill="#ba45c2" stroke-opacity="0" stroke-width="0" stroke="#ba45c2" opacity="1" stroke-linejoin="round" stroke-linecap="round"></path>
      <path xmlns="http://www.w3.org/2000/svg" d="M530 116.935301896424L510 136.935301896424V116.935301896424Z " transform="matrix(1.8,0,0,1.7958649289279902,0,0)" fill-opacity="1" fill="#ba45c2" stroke-opacity="0" stroke-width="0" stroke="#ba45c2" opacity="1" stroke-linejoin="round" stroke-linecap="round"></path>
      <path xmlns="http://www.w3.org/2000/svg" d="M490 116.935301896424L470 136.935301896424V116.935301896424Z " transform="matrix(1.8,0,0,1.7958649289279902,0,0)" fill-opacity="1" fill="#ba45c2" stroke-opacity="0" stroke-width="0" stroke="#ba45c2" opacity="1" stroke-linejoin="round" stroke-linecap="round"></path>
    </g>
    <g class="tile" transform="matrix(-4.286263797015736e-16,-1,1,-4.286263797015736e-16,400.0000152587892,1399.999984741211)">
      <path xmlns="http://www.w3.org/2000/svg" d="M520 327.7777777777778L450 278.7777777777778V262.7777777777778L515.58 266.2547777777778L458 227.7777777777778H487.992L550 268.4497777777778V284.7777777777778L483 281.7777777777778L550 327.7777777777778Z " transform="matrix(1.8,0,0,1.8,0,0)" fill-opacity="1" fill="#8754ea" stroke-opacity="0" stroke-width="0" stroke="#8754ea" opacity="1" stroke-linejoin="round" stroke-linecap="round"></path>
    </g>
    <g class="tile" transform="matrix(-1,1.2246467991473532e-16,-1.2246467991473532e-16,-1,1800,1400)">
      <path xmlns="http://www.w3.org/2000/svg" d="M500 388.8888888888889A50 50 0 0 1 550 438.8888888888889H450A50 50 0 0 1 500 388.8888888888889Z " transform="matrix(1.8,0,0,1.8,0,0)" fill-opacity="1" fill="#9c4cf3" stroke-opacity="0" stroke-width="0" stroke="#9c4cf3" opacity="1" stroke-linejoin="round" stroke-linecap="round"></path>
      <path xmlns="http://www.w3.org/2000/svg" d="M500 338.8888888888889A50 50 0 0 1 550 388.8888888888889H450A50 50 0 0 1 500 338.8888888888889Z " transform="matrix(1.8,0,0,1.8,0,0)" fill-opacity="1" fill="#9c4cf3" stroke-opacity="0" stroke-width="0" stroke="#9c4cf3" opacity="1" stroke-linejoin="round" stroke-linecap="round"></path>
    </g>
    <g class="tile" transform="matrix(-1,1.2246467991473532e-16,-1.2246467991473532e-16,-1,2199.9998168945312,199.9999980926513)">
      <path xmlns="http://www.w3.org/2000/svg" d="M611.1111111111111 25.555555555555557A30 30 0 1 0 641.1111111111111 55.55555555555556A30 30 0 0 0 611.1111111111111 25.555555555555557ZM611.1111111111111 65.55555555555556A10 10 0 1 1 621.1111111111111 55.55555555555556A10 10 0 0 1 611.1111111111111 65.55555555555556Z " transform="matrix(1.8,0,0,1.8,0,0)" fill-opacity="1" fill="#cb40b4" stroke-opacity="0" stroke-width="0" stroke="#cb40b4" opacity="1" stroke-linejoin="round" stroke-linecap="round"></path>
    </g>
    <g class="tile" transform="matrix(-1,6.123233995736766e-16,-6.123233995736766e-16,-1,2199.9998168945317,599.9999847412103)">
      <circle xmlns="http://www.w3.org/2000/svg" cx="641.111083984375" cy="166.66666666666669" r="20" transform="matrix(1.8,0,0,1.8,0,0)" fill-opacity="1" fill="#a34af2" stroke-opacity="0" stroke-width="0" stroke="#a34af2" opacity="1" stroke-linejoin="round" stroke-linecap="round"></circle>
      <path xmlns="http://www.w3.org/2000/svg" d="M561.1111111111111 116.66666666666667L611.1111111111111 166.66666666666669L561.1111111111111 216.66666666666669Z " transform="matrix(1.8,0,0,1.8,0,0)" fill-opacity="1" fill="#a34af2" stroke-opacity="0" stroke-width="0" stroke="#a34af2" opacity="1" stroke-linejoin="round" stroke-linecap="round"></path>
    </g>
    <g class="tile" transform="matrix(-1.8369701987210297e-16,-1,1,-1.8369701987210297e-16,599.9999237060549,1599.9998931884766)">
      <path xmlns="http://www.w3.org/2000/svg" d="M661.1111111111111 327.7777777777778H601.1111111111111L590.1111111111111 248.7777777777778L661.1111111111111 267.7777777777778Z " transform="matrix(1.8,0,0,1.8,0,0)" fill-opacity="1" fill="#b345f1" stroke-opacity="0" stroke-width="0" stroke="#b345f1" opacity="1" stroke-linejoin="round" stroke-linecap="round"></path>
    </g>
    <g class="tile" transform="matrix(1,-4.898587196589413e-16,4.898587196589413e-16,1,-4.547473508864641e-13,5.684341886080801e-13)">
      <path xmlns="http://www.w3.org/2000/svg" d="M646.704372087945 338.8888888888889H624.9993020879449C642.057402087945 357.0431888888889 644.921902087945 377.4916088888889 644.219022087945 391.7228888888889C643.173122087945 412.8730788888889 634.314242087945 430.79147888888895 627.1982720879449 438.8888888888889H647.785432087945A106.13793 106.13793 0 0 0 661.1975220879449 392.5627188888889A87.53983 87.53983 0 0 0 646.704372087945 338.8888888888889Z " transform="matrix(1.7993444923438306,0,0,1.8,0,0)" fill-opacity="1" fill="#b345f1" stroke-opacity="0" stroke-width="0" stroke="#b345f1" opacity="1" stroke-linejoin="round" stroke-linecap="round"></path>
      <path xmlns="http://www.w3.org/2000/svg" d="M583.0206059026422 338.8888888888889H561.3155259026422C578.3736359026423 357.0431888888889 581.2381359026422 377.4916088888889 580.5352559026422 391.7228888888889C579.4893559026422 412.8730788888889 570.6304659026422 430.79147888888895 563.5145259026422 438.8888888888889H584.1016559026422A106.13793 106.13793 0 0 0 597.5137659026423 392.5627188888889A87.53988 87.53988 0 0 0 583.0206059026422 338.8888888888889Z " transform="matrix(1.7993444923438306,0,0,1.8,0,0)" fill-opacity="1" fill="#b345f1" stroke-opacity="0" stroke-width="0" stroke="#b345f1" opacity="1" stroke-linejoin="round" stroke-linecap="round"></path>
    </g>
    <g class="tile" transform="matrix(5.51091059616309e-16,1,-1,5.51091059616309e-16,1399.9998769760125,-1199.9998788833618)">
      <path xmlns="http://www.w3.org/2000/svg" d="M738.5232826297192 5.555555555555555L672.2272826297192 13.017555555555555L672.2222826297192 47.11655555555555L689.2222826297192 105.55555555555556L772.2222826297192 81.32955555555556Z " transform="matrix(1.7999998626709088,0,0,1.8,0,0)" fill-opacity="1" fill="#7d57f7" stroke-opacity="0" stroke-width="0" stroke="#7d57f7" opacity="1" stroke-linejoin="round" stroke-linecap="round"></path>
    </g>
    <g class="tile" transform="matrix(-4.286263797015736e-16,-1,1,-4.286263797015736e-16,1000.000007629395,1599.9999923706055)">
      <path xmlns="http://www.w3.org/2000/svg" d="M722.2222222222223 216.66666666666669L772.2222222222223 166.66666666666669V216.66666666666669Z " transform="matrix(1.8,0,0,1.8,0,0)" fill-opacity="1" fill="#944ff4" stroke-opacity="0" stroke-width="0" stroke="#944ff4" opacity="1" stroke-linejoin="round" stroke-linecap="round"></path>
      <path xmlns="http://www.w3.org/2000/svg" d="M722.2222222222223 116.66666666666667L672.2222222222223 166.66666666666669V116.66666666666667Z " transform="matrix(1.8,0,0,1.8,0,0)" fill-opacity="1" fill="#944ff4" stroke-opacity="0" stroke-width="0" stroke="#944ff4" opacity="1" stroke-linejoin="round" stroke-linecap="round"></path>
    </g>
    <g class="tile" transform="matrix(6.123233995736766e-17,1,-1,6.123233995736766e-17,1799.999984741211,-800.0000152587891)">
      <path xmlns="http://www.w3.org/2000/svg" d="M701.9722222222223 327.7777777777778A29.78357 29.78357 0 0 1 672.2222222222223 298.0277777777778V227.7777777777778H689.2222222222223V298.0277777777778A12.75 12.75 0 0 0 714.7222222222223 298.0277777777778V279.0795377777778A29.74949 29.74949 0 0 1 765.5083522222222 258.0433977777778L772.2222222222223 264.7777777777778V289.7777777777778L753.4868722222222 270.0648877777778A12.74883 12.74883 0 0 0 731.7222222222223 279.0795377777778V298.0277777777778A29.78357 29.78357 0 0 1 701.9722222222223 327.7777777777778Z " transform="matrix(1.8,0,0,1.8,0,0)" fill-opacity="1" fill="#9c4cf3" stroke-opacity="0" stroke-width="0" stroke="#9c4cf3" opacity="1" stroke-linejoin="round" stroke-linecap="round"></path>
    </g>
    <g class="tile" transform="matrix(-1,3.6739403974420594e-16,-3.6739403974420594e-16,-1,2600.0000000000005,1399.9999999999993)">
      <polygon xmlns="http://www.w3.org/2000/svg" points="709.2222290039062,375.8888888888889 692.2222290039062,438.8888888888889 711.9222290039063,438.8888888888889 724.7222290039062,391.3888888888889 772.2222290039062,378.5888888888889 772.2222290039062,358.8888888888889" transform="matrix(1.8,0,0,1.8,0,0)" fill-opacity="1" fill="#9c4cf3" stroke-opacity="0" stroke-width="0" stroke="#9c4cf3" opacity="1" stroke-linejoin="round" stroke-linecap="round"></polygon>
      <path xmlns="http://www.w3.org/2000/svg" d="M772.2222222222223 397.8888888888889L739.7222222222223 406.3888888888889L731.2222222222223 438.8888888888889H772.2222222222223V397.8888888888889Z " transform="matrix(1.8,0,0,1.8,0,0)" fill-opacity="1" fill="#9c4cf3" stroke-opacity="0" stroke-width="0" stroke="#9c4cf3" opacity="1" stroke-linejoin="round" stroke-linecap="round"></path>
      <path xmlns="http://www.w3.org/2000/svg" d="M772.2222222222223 338.8888888888889H698.4222222222223H672.2222222222223V365.0888888888889V438.8888888888889L693.0222222222222 359.6888888888889L772.2222222222223 338.8888888888889Z " transform="matrix(1.8,0,0,1.8,0,0)" fill-opacity="1" fill="#9c4cf3" stroke-opacity="0" stroke-width="0" stroke="#9c4cf3" opacity="1" stroke-linejoin="round" stroke-linecap="round"></path>
    </g>
    <g class="tile" transform="matrix(-4.286263797015736e-16,-1,1,-4.286263797015736e-16,1399.9998788833625,1599.9998769760132)">
      <path xmlns="http://www.w3.org/2000/svg" d="M883.333335240682 77.83555407206192C876.896565240682 74.97861407206193 870.540855240682 75.32590407206193 865.485675240682 75.60831407206193C859.006185240682 75.97160407206194 855.7376752406819 75.99308407206193 852.263025240682 72.51652407206193C848.788415240682 69.04191407206191 848.808925240682 65.77433407206192 849.173175240682 59.29679407206192C849.580405240682 52.04386407206192 850.138995240682 42.11027407206192 841.131175240682 33.10148407206192C832.122385240682 24.094644072061925 822.190745240682 24.649334072061926 814.935865240682 25.060484072061925C808.458325240682 25.421814072061924 805.189775240682 25.446224072061923 801.716135240682 21.971624072061925C798.241535240682 18.496964072061925 798.263025240682 15.228404072061924 798.627335240682 8.750864072061923C798.684215240682 7.736404072061923 798.741335240682 6.664994072061923 798.777725240682 5.5555540720619225H783.333335240682V24.296464072061923A27.1048 27.1048 0 0 0 789.694665240682 33.99207407206192C798.703455240682 42.99989407206192 808.636065240682 42.44520407206192 815.889975240682 42.033074072061915C822.362635240682 41.670764072061914 825.635095240682 41.64635407206192 829.109705240682 45.12291407206192C832.584315240682 48.597524072061915 832.563805240682 51.86510407206192 832.199545240682 58.342644072061915C831.792315240682 65.59557407206191 831.233725240682 75.52916407206193 840.241545240682 84.53795407206192C849.250335240682 93.54674407206193 859.186865240682 92.99010407206192 866.437835240682 92.58190407206192C872.921235240682 92.21862407206191 876.185885240682 92.19713407206191 879.660495240682 95.67369407206192C882.481495240682 98.49480407206192 882.999115240682 101.17992407206192 882.899755240682 105.55553407206192H883.333335240682Z " transform="matrix(1.8,0,0,1.8,0,0.0000026702880859375)" fill-opacity="1" fill="#765af8" stroke-opacity="0" stroke-width="0" stroke="#765af8" opacity="1" stroke-linejoin="round" stroke-linecap="round"></path>
    </g>
    <g class="tile" transform="matrix(-1,1.2246467991473532e-16,-1.2246467991473532e-16,-1,2999.999755859375,599.9999847412107)">
      <path xmlns="http://www.w3.org/2000/svg" d="M783.3333333333334 116.66666666666667L834.3333333333334 148.66666666666669L883.3333333333334 116.66666666666667V216.66666666666669L783.3333333333334 148.66666666666669Z " transform="matrix(1.8,0,0,1.8,0,0)" fill-opacity="1" fill="#cb40b4" stroke-opacity="0" stroke-width="0" stroke="#cb40b4" opacity="1" stroke-linejoin="round" stroke-linecap="round"></path>
    </g>
    <g class="tile" transform="matrix(-1.8369701987210297e-16,-1,1,-1.8369701987210297e-16,999.9998931884768,1999.9998626708984)">
      <circle xmlns="http://www.w3.org/2000/svg" cx="803.3333129882812" cy="247.7777777777778" r="10" transform="matrix(1.8,0,0,1.8,0,0)" fill-opacity="1" fill="#8554f6" stroke-opacity="0" stroke-width="0" stroke="#8554f6" opacity="1" stroke-linejoin="round" stroke-linecap="round"></circle>
      <circle xmlns="http://www.w3.org/2000/svg" cx="833.3333129882812" cy="247.7777777777778" r="10" transform="matrix(1.8,0,0,1.8,0,0)" fill-opacity="1" fill="#8554f6" stroke-opacity="0" stroke-width="0" stroke="#8554f6" opacity="1" stroke-linejoin="round" stroke-linecap="round"></circle>
      <circle xmlns="http://www.w3.org/2000/svg" cx="833.3333129882812" cy="307.7777777777778" r="10" transform="matrix(1.8,0,0,1.8,0,0)" fill-opacity="1" fill="#8554f6" stroke-opacity="0" stroke-width="0" stroke="#8554f6" opacity="1" stroke-linejoin="round" stroke-linecap="round"></circle>
      <circle xmlns="http://www.w3.org/2000/svg" cx="833.3333129882812" cy="277.7777777777778" r="10" transform="matrix(1.8,0,0,1.8,0,0)" fill-opacity="1" fill="#8554f6" stroke-opacity="0" stroke-width="0" stroke="#8554f6" opacity="1" stroke-linejoin="round" stroke-linecap="round"></circle>
      <circle xmlns="http://www.w3.org/2000/svg" cx="863.3333129882812" cy="247.7777777777778" r="10" transform="matrix(1.8,0,0,1.8,0,0)" fill-opacity="1" fill="#8554f6" stroke-opacity="0" stroke-width="0" stroke="#8554f6" opacity="1" stroke-linejoin="round" stroke-linecap="round"></circle>
      <circle xmlns="http://www.w3.org/2000/svg" cx="863.3333129882812" cy="277.7777777777778" r="10" transform="matrix(1.8,0,0,1.8,0,0)" fill-opacity="1" fill="#8554f6" stroke-opacity="0" stroke-width="0" stroke="#8554f6" opacity="1" stroke-linejoin="round" stroke-linecap="round"></circle>
      <circle xmlns="http://www.w3.org/2000/svg" cx="803.3333129882812" cy="277.7777777777778" r="10" transform="matrix(1.8,0,0,1.8,0,0)" fill-opacity="1" fill="#8554f6" stroke-opacity="0" stroke-width="0" stroke="#8554f6" opacity="1" stroke-linejoin="round" stroke-linecap="round"></circle>
      <circle xmlns="http://www.w3.org/2000/svg" cx="803.3333129882812" cy="307.7777777777778" r="10" transform="matrix(1.8,0,0,1.8,0,0)" fill-opacity="1" fill="#8554f6" stroke-opacity="0" stroke-width="0" stroke="#8554f6" opacity="1" stroke-linejoin="round" stroke-linecap="round"></circle>
      <circle xmlns="http://www.w3.org/2000/svg" cx="863.3333129882812" cy="307.7777777777778" r="10" transform="matrix(1.8,0,0,1.8,0,0)" fill-opacity="1" fill="#8554f6" stroke-opacity="0" stroke-width="0" stroke="#8554f6" opacity="1" stroke-linejoin="round" stroke-linecap="round"></circle>
    </g>
    <g class="tile" transform="matrix(-1,3.6739403974420594e-16,-3.6739403974420594e-16,-1,2999.9997558593755,1399.9999999999995)">
      <path xmlns="http://www.w3.org/2000/svg" d="M833.3333333333334 338.8888888888889H783.3333333333334V388.8888888888889A50 50 0 0 1 833.3333333333334 338.8888888888889Z " transform="matrix(1.8,0,0,1.8,0,0)" fill-opacity="1" fill="#8c52f5" stroke-opacity="0" stroke-width="0" stroke="#8c52f5" opacity="1" stroke-linejoin="round" stroke-linecap="round"></path>
      <path xmlns="http://www.w3.org/2000/svg" d="M833.3333333333334 438.8888888888889H883.3333333333334V388.8888888888889A50 50 0 0 1 833.3333333333334 438.8888888888889Z " transform="matrix(1.8,0,0,1.8,0,0)" fill-opacity="1" fill="#8c52f5" stroke-opacity="0" stroke-width="0" stroke="#8c52f5" opacity="1" stroke-linejoin="round" stroke-linecap="round"></path>
      <circle xmlns="http://www.w3.org/2000/svg" cx="833.3333129882812" cy="388.8888888888889" r="10" transform="matrix(1.8,0,0,1.8,0,0)" fill-opacity="1" fill="#8c52f5" stroke-opacity="0" stroke-width="0" stroke="#8c52f5" opacity="1" stroke-linejoin="round" stroke-linecap="round"></circle>
    </g>
  </g>
</svg>
